<svg xmlns="http://www.w3.org/2000/svg" id="canvas" viewBox="255.947 406.632 985.150 97.592"><path d="M 261.86,410.34 C 261.03 411.38, 260.46 412.83, 259.93 415.82 C 259.41 418.80, 259.43 420.98, 259.24 425.27 C 259.05 429.57, 258.90 432.38, 258.96 437.29 C 259.02 442.19, 259.16 444.98, 259.54 449.81 C 259.92 454.63, 260.23 457.05, 260.86 461.41 C 261.48 465.78, 261.96 467.93, 262.67 471.62 C 263.37 475.32, 263.55 477.11, 264.39 479.90 C 265.24 482.69, 265.78 484.07, 266.90 485.57 C 268.02 487.08, 268.85 487.59, 270.00 487.43 C 271.16 487.27, 272.10 486.69, 272.66 484.77 C 273.21 482.84, 273.11 481.23, 272.79 477.81 C 272.47 474.38, 271.68 472.07, 271.06 467.64 C 270.45 463.22, 270.09 460.59, 269.71 455.69 C 269.33 450.80, 269.26 447.93, 269.15 443.18 C 269.05 438.43, 269.17 436.00, 269.20 431.94 C 269.22 427.89, 269.43 426.13, 269.30 422.91 C 269.16 419.68, 269.14 418.02, 268.53 415.83 C 267.91 413.64, 267.09 412.70, 266.20 411.96 C 265.32 411.22, 264.72 411.55, 264.09 412.14 C 263.47 412.73, 263.01 413.37, 263.07 414.92 C 263.13 416.46, 263.25 417.71, 264.40 419.88 C 265.56 422.04, 266.58 423.63, 268.85 425.76 C 271.13 427.88, 272.90 428.82, 275.76 430.50 C 278.63 432.18, 280.10 433.19, 283.18 434.15 C 286.26 435.12, 288.12 435.27, 291.17 435.33 C 294.22 435.40, 295.77 435.20, 298.44 434.48 C 301.11 433.77, 302.78 432.94, 304.53 431.78 C 306.29 430.61, 306.79 429.44, 307.23 428.66 C 307.66 427.89, 307.29 427.34, 306.73 427.90 C 306.17 428.46, 305.18 429.07, 304.45 431.44 C 303.71 433.81, 303.56 435.95, 303.07 439.77 C 302.58 443.59, 302.28 446.19, 301.99 450.53 C 301.71 454.87, 301.54 457.41, 301.65 461.47 C 301.76 465.52, 301.94 467.57, 302.52 470.79 C 303.11 474.02, 303.60 475.47, 304.57 477.61 C 305.55 479.74, 306.50 480.84, 307.40 481.47 C 308.30 482.09, 308.88 481.76, 309.08 480.75 C 309.28 479.73, 308.79 478.54, 308.39 476.39 C 308.00 474.24, 307.60 473.01, 307.10 470.00 C 306.60 466.99, 306.02 465.15, 305.89 461.34 C 305.77 457.53, 305.95 455.08, 306.46 450.95 C 306.97 446.82, 307.65 444.37, 308.44 440.69 C 309.23 437.01, 310.23 435.20, 310.44 432.56 C 310.64 429.92, 310.30 428.87, 309.46 427.49 C 308.62 426.12, 307.72 425.82, 306.22 425.70 C 304.73 425.58, 303.85 426.18, 302.00 426.88 C 300.15 427.59, 299.14 428.60, 296.99 429.21 C 294.84 429.82, 293.70 429.99, 291.28 429.94 C 288.85 429.90, 287.35 429.85, 284.86 428.99 C 282.38 428.14, 281.09 427.27, 278.86 425.68 C 276.63 424.08, 275.38 422.94, 273.72 421.02 C 272.05 419.11, 271.75 417.76, 270.55 416.10 C 269.35 414.44, 268.81 413.59, 267.73 412.72 C 266.64 411.84, 265.98 411.67, 265.13 411.72 C 264.29 411.76, 263.75 411.92, 263.50 412.94 C 263.25 413.96, 263.61 414.75, 263.89 416.81 C 264.16 418.86, 264.56 420.18, 264.88 423.22 C 265.19 426.26, 265.30 427.99, 265.45 432.00 C 265.60 436.01, 265.52 438.48, 265.64 443.26 C 265.77 448.04, 265.85 450.95, 266.06 455.91 C 266.27 460.87, 266.47 463.56, 266.68 468.05 C 266.88 472.53, 266.79 474.99, 267.09 478.34 C 267.40 481.68, 267.64 483.16, 268.22 484.79 C 268.79 486.43, 269.51 486.66, 269.98 486.52 C 270.46 486.37, 270.74 485.67, 270.59 484.06 C 270.43 482.45, 270.00 481.12, 269.20 478.45 C 268.39 475.78, 267.52 474.24, 266.56 470.72 C 265.59 467.21, 265.08 465.10, 264.37 460.87 C 263.67 456.64, 263.34 454.26, 263.02 449.55 C 262.70 444.84, 262.67 442.10, 262.77 437.30 C 262.87 432.51, 263.16 429.76, 263.53 425.56 C 263.91 421.36, 264.54 419.31, 264.66 416.32 C 264.77 413.33, 264.67 411.81, 264.11 410.61 C 263.55 409.42, 262.70 409.30, 261.86 410.34" style="stroke: black; fill: black;"/><path d="M 324.43,456.79 C 323.51 457.19, 322.80 457.84, 321.90 459.54 C 321.00 461.24, 320.43 462.64, 319.92 465.28 C 319.42 467.93, 319.10 469.86, 319.37 472.77 C 319.65 475.68, 319.98 477.55, 321.31 479.84 C 322.64 482.13, 323.81 483.23, 326.02 484.21 C 328.23 485.20, 329.71 485.32, 332.35 484.76 C 334.98 484.21, 336.51 483.37, 339.19 481.45 C 341.88 479.53, 343.23 478.00, 345.78 475.17 C 348.34 472.34, 349.74 470.49, 351.99 467.31 C 354.24 464.12, 355.78 462.15, 357.04 459.24 C 358.29 456.33, 358.37 454.45, 358.27 452.76 C 358.18 451.07, 357.33 450.59, 356.54 450.79 C 355.76 451.00, 354.96 451.89, 354.34 453.78 C 353.71 455.67, 353.11 457.40, 353.41 460.24 C 353.71 463.09, 354.42 465.18, 355.84 468.01 C 357.25 470.83, 358.46 472.31, 360.46 474.38 C 362.46 476.45, 363.51 477.18, 365.85 478.36 C 368.19 479.54, 369.42 479.97, 372.15 480.27 C 374.88 480.56, 376.55 480.56, 379.51 479.84 C 382.46 479.12, 384.03 478.39, 386.92 476.67 C 389.82 474.95, 391.37 473.61, 394.00 471.25 C 396.63 468.88, 397.98 467.38, 400.08 464.83 C 402.18 462.28, 403.26 460.80, 404.48 458.51 C 405.71 456.22, 405.94 455.17, 406.22 453.36 C 406.50 451.56, 406.46 450.65, 405.89 449.50 C 405.32 448.35, 404.45 447.69, 403.37 447.61 C 402.28 447.53, 401.17 448.00, 400.48 449.11 C 399.79 450.23, 399.45 451.29, 399.91 453.18 C 400.37 455.08, 400.87 456.45, 402.77 458.60 C 404.67 460.75, 406.67 461.76, 409.42 463.93 C 412.17 466.09, 413.93 467.21, 416.50 469.41 C 419.06 471.61, 420.35 472.95, 422.25 474.92 C 424.14 476.89, 425.04 477.80, 425.99 479.26 C 426.94 480.73, 427.16 481.33, 426.99 482.24 C 426.83 483.14, 426.42 483.33, 425.16 483.78 C 423.90 484.23, 422.65 484.31, 420.69 484.48 C 418.72 484.64, 417.46 484.74, 415.34 484.60 C 413.21 484.47, 411.97 484.07, 410.06 483.80 C 408.14 483.54, 407.01 483.27, 405.76 483.29 C 404.52 483.30, 403.93 483.57, 403.83 483.87 C 403.74 484.16, 403.99 484.64, 405.29 484.75 C 406.59 484.87, 407.86 485.11, 410.32 484.46 C 412.79 483.81, 414.49 482.85, 417.62 481.51 C 420.75 480.17, 422.77 479.18, 425.97 477.75 C 429.18 476.33, 431.01 475.78, 433.66 474.39 C 436.30 473.00, 437.42 472.15, 439.20 470.80 C 440.98 469.45, 441.80 468.71, 442.56 467.64 C 443.32 466.56, 443.32 465.96, 443.03 465.43 C 442.73 464.89, 441.94 464.61, 441.08 464.96 C 440.22 465.31, 439.08 465.95, 438.74 467.17 C 438.40 468.38, 438.59 469.64, 439.38 471.02 C 440.16 472.41, 441.24 473.32, 442.67 474.10 C 444.10 474.88, 445.22 474.88, 446.53 474.92 C 447.83 474.95, 448.35 474.75, 449.19 474.26 C 450.02 473.77, 450.54 473.21, 450.71 472.44 C 450.88 471.67, 450.51 470.97, 450.05 470.41 C 449.58 469.85, 449.03 469.87, 448.38 469.64 C 447.74 469.40, 447.43 469.29, 446.82 469.23 C 446.20 469.16, 445.52 469.43, 445.31 469.31 C 445.10 469.18, 445.68 469.08, 445.77 468.61 C 445.85 468.13, 446.12 467.55, 445.71 466.92 C 445.30 466.29, 444.43 465.96, 443.73 465.46 C 443.03 464.95, 442.96 464.58, 442.22 464.38 C 441.48 464.19, 441.19 464.02, 440.04 464.48 C 438.88 464.94, 438.22 465.65, 436.45 466.67 C 434.68 467.68, 433.70 468.32, 431.19 469.55 C 428.68 470.79, 427.04 471.59, 423.90 472.85 C 420.76 474.11, 418.61 474.82, 415.47 475.86 C 412.33 476.91, 410.57 477.10, 408.19 478.08 C 405.80 479.05, 404.78 479.52, 403.54 480.75 C 402.30 481.97, 401.89 482.83, 401.98 484.20 C 402.08 485.56, 402.67 486.49, 404.02 487.56 C 405.38 488.63, 406.58 488.90, 408.75 489.56 C 410.93 490.22, 412.30 490.67, 414.89 490.87 C 417.49 491.07, 419.18 491.17, 421.74 490.55 C 424.31 489.93, 425.95 489.27, 427.73 487.76 C 429.50 486.25, 430.15 485.11, 430.63 483.01 C 431.10 480.92, 430.98 479.62, 430.10 477.28 C 429.21 474.94, 428.23 473.68, 426.21 471.33 C 424.18 468.97, 422.56 467.85, 419.97 465.49 C 417.39 463.12, 415.68 461.84, 413.27 459.51 C 410.86 457.18, 409.61 455.59, 407.93 453.85 C 406.26 452.11, 405.71 451.60, 404.88 450.81 C 404.06 450.01, 404.19 450.05, 403.80 449.88 C 403.40 449.70, 403.12 449.84, 402.92 449.93 C 402.71 450.02, 402.92 449.89, 402.79 450.34 C 402.65 450.80, 402.80 451.11, 402.24 452.21 C 401.68 453.30, 401.24 453.96, 399.98 455.81 C 398.73 457.66, 397.83 459.13, 395.95 461.46 C 394.07 463.79, 392.92 465.35, 390.58 467.46 C 388.24 469.58, 386.75 470.65, 384.26 472.03 C 381.77 473.41, 380.47 473.74, 378.12 474.36 C 375.77 474.99, 374.53 475.20, 372.52 475.16 C 370.51 475.11, 369.63 475.00, 368.06 474.14 C 366.49 473.27, 365.88 472.59, 364.67 470.84 C 363.45 469.08, 362.79 467.70, 361.98 465.36 C 361.17 463.02, 361.11 461.46, 360.62 459.14 C 360.12 456.82, 360.16 455.47, 359.52 453.76 C 358.87 452.05, 358.32 451.02, 357.39 450.60 C 356.45 450.17, 355.90 450.38, 354.84 451.63 C 353.77 452.89, 353.42 454.28, 352.06 456.87 C 350.70 459.46, 350.01 461.61, 348.03 464.59 C 346.05 467.56, 344.58 469.30, 342.16 471.76 C 339.73 474.22, 338.15 475.26, 335.91 476.91 C 333.66 478.56, 332.58 479.29, 330.94 480.00 C 329.29 480.72, 328.67 480.90, 327.68 480.47 C 326.69 480.04, 326.31 479.42, 326.00 477.85 C 325.70 476.28, 325.98 474.95, 326.14 472.62 C 326.30 470.28, 326.65 468.55, 326.80 466.18 C 326.94 463.80, 326.94 462.49, 326.88 460.76 C 326.82 459.03, 326.98 458.32, 326.49 457.53 C 326.00 456.73, 325.34 456.39, 324.43 456.79" style="stroke: black; fill: black;"/><path d="M 435.32,428.13 C 435.83 428.91, 436.79 428.97, 437.73 429.35 C 438.68 429.73, 438.96 429.97, 440.05 430.03 C 441.15 430.10, 442.37 430.30, 443.20 429.69 C 444.04 429.09, 444.54 428.04, 444.23 427.00 C 443.93 425.95, 442.91 425.10, 441.70 424.48 C 440.49 423.87, 439.49 423.73, 438.19 423.92 C 436.88 424.12, 435.74 424.61, 435.17 425.45 C 434.59 426.29, 434.80 427.35, 435.32 428.13" style="stroke: black; fill: black;"/><path d="M 458.68,427.47 C 458.07 428.57, 457.80 430.04, 457.88 432.72 C 457.96 435.40, 458.35 437.19, 459.08 440.87 C 459.82 444.56, 460.49 447.21, 461.55 451.15 C 462.62 455.08, 463.22 457.16, 464.39 460.53 C 465.57 463.90, 466.13 465.53, 467.44 467.98 C 468.74 470.44, 469.59 471.35, 470.93 472.80 C 472.27 474.25, 473.03 474.76, 474.13 475.24 C 475.23 475.73, 475.86 475.50, 476.43 475.23 C 477.00 474.97, 477.10 474.18, 477.00 473.91 C 476.89 473.65, 476.01 473.88, 475.91 473.93 C 475.80 473.97, 476.36 474.42, 476.49 474.13 C 476.61 473.84, 476.95 473.32, 476.53 472.49 C 476.12 471.65, 475.36 471.32, 474.42 469.96 C 473.47 468.60, 472.92 467.90, 471.80 465.70 C 470.68 463.51, 469.94 462.11, 468.81 458.96 C 467.68 455.81, 467.09 453.76, 466.13 449.95 C 465.18 446.15, 464.69 443.51, 464.05 439.93 C 463.41 436.35, 463.53 434.59, 462.92 432.05 C 462.30 429.50, 461.82 428.13, 460.98 427.21 C 460.13 426.29, 459.30 426.37, 458.68 427.47" style="stroke: black; fill: black;"/><path d="M 477.82,460.42 C 477.39 461.07, 477.51 461.25, 477.64 461.79 C 477.76 462.34, 478.10 462.95, 478.46 463.14 C 478.81 463.33, 479.26 462.94, 479.40 462.76 C 479.53 462.57, 479.31 462.08, 479.14 462.20 C 478.96 462.33, 478.76 462.58, 478.53 463.38 C 478.29 464.18, 478.00 464.89, 477.98 466.21 C 477.96 467.53, 478.19 468.59, 478.44 469.97 C 478.69 471.36, 478.88 472.01, 479.22 473.13 C 479.57 474.24, 479.78 474.83, 480.18 475.53 C 480.58 476.23, 480.80 476.24, 481.22 476.63 C 481.65 477.02, 482.00 477.00, 482.32 477.48 C 482.65 477.95, 482.51 478.42, 482.84 479.01 C 483.17 479.60, 483.39 479.91, 483.98 480.41 C 484.56 480.91, 484.70 481.33, 485.76 481.50 C 486.82 481.67, 488.20 481.89, 489.28 481.28 C 490.37 480.66, 491.13 479.74, 491.17 478.43 C 491.21 477.13, 490.42 475.68, 489.48 474.75 C 488.54 473.82, 487.58 473.93, 486.49 473.80 C 485.40 473.66, 484.65 473.71, 484.04 474.06 C 483.42 474.42, 483.43 475.30, 483.41 475.58 C 483.39 475.86, 483.75 475.65, 483.93 475.46 C 484.11 475.28, 484.18 475.22, 484.31 474.66 C 484.45 474.10, 484.43 473.61, 484.61 472.66 C 484.78 471.72, 484.94 471.27, 485.18 469.95 C 485.42 468.63, 485.87 467.57, 485.80 466.08 C 485.74 464.59, 485.35 463.63, 484.85 462.51 C 484.36 461.39, 483.86 461.26, 483.32 460.49 C 482.78 459.73, 482.60 459.26, 482.17 458.69 C 481.74 458.11, 481.43 457.74, 481.18 457.63 C 480.92 457.53, 481.18 457.97, 480.90 458.16 C 480.63 458.34, 480.44 458.11, 479.82 458.56 C 479.20 459.01, 478.26 459.78, 477.82 460.42" style="stroke: black; fill: black;"/><path d="M 606.92,424.50 C 606.72 423.43, 606.19 422.31, 604.53 420.98 C 602.86 419.65, 601.49 418.53, 598.61 417.85 C 595.74 417.17, 593.43 416.91, 590.13 417.58 C 586.83 418.26, 584.93 419.05, 582.13 421.22 C 579.33 423.38, 577.95 424.77, 576.13 428.40 C 574.31 432.02, 573.87 434.25, 573.03 439.33 C 572.18 444.40, 571.94 447.46, 571.89 453.77 C 571.85 460.07, 572.30 464.26, 572.79 470.86 C 573.28 477.45, 573.69 481.03, 574.33 486.75 C 574.98 492.47, 575.22 496.97, 576.01 499.46 C 576.81 501.94, 578.14 501.77, 578.32 499.17 C 578.50 496.58, 577.46 492.18, 576.90 486.48 C 576.34 480.78, 575.94 477.20, 575.52 470.67 C 575.10 464.14, 574.66 459.96, 574.81 453.82 C 574.97 447.67, 575.35 444.64, 576.31 439.94 C 577.28 435.23, 577.94 433.24, 579.66 430.30 C 581.37 427.35, 582.63 426.57, 584.90 425.20 C 587.18 423.82, 588.55 423.64, 591.03 423.43 C 593.50 423.21, 595.06 423.73, 597.28 424.13 C 599.50 424.54, 600.49 425.01, 602.14 425.45 C 603.79 425.89, 604.58 426.52, 605.53 426.33 C 606.49 426.14, 607.13 425.57, 606.92 424.50" style="stroke: black; fill: black;"/><path d="M 554.31,469.03 C 554.27 470.04, 554.35 471.07, 555.65 472.62 C 556.95 474.18, 558.29 475.31, 560.79 476.81 C 563.29 478.31, 564.80 479.22, 568.13 480.11 C 571.46 480.99, 575.41 481.64, 577.45 481.23 C 579.48 480.82, 579.75 479.40, 578.30 478.05 C 576.85 476.71, 573.05 475.88, 570.19 474.49 C 567.33 473.11, 566.27 472.30, 563.98 471.12 C 561.70 469.93, 560.40 469.28, 558.77 468.57 C 557.14 467.87, 556.72 467.51, 555.83 467.60 C 554.93 467.69, 554.34 468.03, 554.31 469.03" style="stroke: black; fill: black;"/><path d="M 618.98,426.48 C 618.34 426.15, 617.64 425.92, 616.53 426.63 C 615.42 427.34, 614.20 427.90, 613.42 430.04 C 612.63 432.19, 612.73 433.71, 612.62 437.37 C 612.51 441.02, 612.72 443.39, 612.88 448.32 C 613.04 453.25, 613.18 456.51, 613.41 462.04 C 613.64 467.57, 613.80 470.97, 614.01 475.96 C 614.23 480.96, 614.36 483.39, 614.49 487.02 C 614.62 490.65, 614.44 492.08, 614.65 494.12 C 614.85 496.17, 615.14 496.52, 615.52 497.23 C 615.89 497.95, 616.43 498.01, 616.52 497.69 C 616.61 497.36, 616.54 495.69, 615.95 495.61 C 615.36 495.53, 613.59 496.56, 613.56 497.29 C 613.53 498.01, 614.94 499.19, 615.81 499.23 C 616.68 499.26, 617.37 498.52, 617.92 497.48 C 618.48 496.44, 618.48 496.15, 618.58 494.02 C 618.68 491.89, 618.66 490.48, 618.43 486.83 C 618.20 483.18, 617.74 480.76, 617.43 475.78 C 617.11 470.80, 616.96 467.42, 616.85 461.93 C 616.74 456.45, 616.65 453.18, 616.87 448.35 C 617.09 443.51, 617.54 441.12, 617.96 437.77 C 618.38 434.42, 618.67 433.29, 618.96 431.59 C 619.25 429.90, 619.26 429.95, 619.41 429.29 C 619.57 428.63, 619.82 428.84, 619.74 428.28 C 619.65 427.72, 619.62 426.81, 618.98 426.48" style="stroke: black; fill: black;"/><path d="M 597.86,462.16 C 599.11 462.17, 600.30 461.45, 602.73 460.38 C 605.16 459.31, 606.83 458.15, 610.03 456.81 C 613.23 455.46, 615.99 454.76, 618.73 453.67 C 621.47 452.58, 622.27 451.98, 623.72 451.34 C 625.16 450.70, 625.63 450.36, 625.94 450.45 C 626.25 450.54, 625.50 450.90, 625.26 451.78 C 625.03 452.67, 624.85 453.50, 624.77 454.86 C 624.69 456.23, 624.73 457.08, 624.84 458.63 C 624.96 460.17, 625.28 461.02, 625.35 462.61 C 625.42 464.19, 625.31 464.90, 625.20 466.54 C 625.08 468.19, 624.92 469.05, 624.78 470.84 C 624.64 472.63, 624.42 473.71, 624.50 475.50 C 624.57 477.29, 624.48 478.45, 625.14 479.79 C 625.79 481.13, 626.64 481.84, 627.76 482.20 C 628.88 482.55, 629.76 482.27, 630.72 481.56 C 631.69 480.85, 632.21 480.05, 632.58 478.64 C 632.95 477.24, 632.52 476.23, 632.57 474.55 C 632.62 472.87, 632.27 471.97, 632.82 470.25 C 633.37 468.54, 633.67 467.41, 635.31 465.99 C 636.96 464.57, 638.57 464.11, 641.04 463.15 C 643.51 462.19, 645.23 461.96, 647.65 461.18 C 650.07 460.41, 652.08 460.13, 653.15 459.28 C 654.21 458.43, 654.27 457.62, 652.98 456.93 C 651.70 456.25, 649.54 455.71, 646.73 455.84 C 643.92 455.97, 641.98 456.43, 638.92 457.57 C 635.86 458.71, 633.76 459.46, 631.41 461.54 C 629.06 463.62, 628.33 465.45, 627.17 467.98 C 626.01 470.51, 625.76 471.98, 625.60 474.18 C 625.44 476.38, 625.87 477.64, 626.38 478.97 C 626.89 480.29, 627.49 480.51, 628.16 480.81 C 628.83 481.11, 629.28 480.90, 629.72 480.48 C 630.15 480.05, 630.18 479.70, 630.34 478.70 C 630.50 477.69, 630.47 476.96, 630.51 475.45 C 630.56 473.94, 630.52 472.84, 630.55 471.13 C 630.59 469.43, 630.57 468.64, 630.70 466.94 C 630.83 465.25, 631.10 464.41, 631.20 462.66 C 631.30 460.90, 631.31 459.86, 631.20 458.17 C 631.08 456.48, 631.01 455.66, 630.61 454.21 C 630.22 452.76, 629.90 452.12, 629.21 450.92 C 628.52 449.72, 628.40 448.96, 627.16 448.21 C 625.92 447.46, 625.08 447.21, 623.00 447.16 C 620.93 447.12, 619.83 447.09, 616.78 447.99 C 613.73 448.89, 611.09 450.08, 607.74 451.64 C 604.38 453.21, 602.25 454.09, 600.00 455.82 C 597.75 457.56, 596.92 459.06, 596.49 460.33 C 596.06 461.59, 596.62 462.15, 597.86 462.16" style="stroke: black; fill: black;"/><path d="M 802.28,461.58 C 802.03 460.88, 801.66 460.24, 800.42 459.93 C 799.19 459.63, 798.10 459.40, 796.10 460.05 C 794.10 460.69, 792.64 461.32, 790.42 463.15 C 788.20 464.99, 786.75 466.56, 785.00 469.23 C 783.25 471.89, 782.53 473.70, 781.66 476.48 C 780.79 479.27, 780.43 480.71, 780.64 483.16 C 780.85 485.60, 781.29 486.96, 782.71 488.71 C 784.12 490.45, 785.27 491.30, 787.70 491.87 C 790.13 492.45, 792.04 492.57, 794.85 491.57 C 797.66 490.56, 799.29 489.36, 801.76 486.83 C 804.23 484.30, 805.18 482.48, 807.20 478.90 C 809.23 475.32, 810.28 473.16, 811.89 468.93 C 813.51 464.70, 814.27 462.20, 815.29 457.74 C 816.31 453.28, 816.60 450.82, 817.00 446.65 C 817.41 442.47, 817.59 440.32, 817.32 436.87 C 817.05 433.42, 816.77 431.63, 815.65 429.41 C 814.53 427.19, 813.35 426.18, 811.72 425.76 C 810.09 425.33, 808.76 425.72, 807.49 427.29 C 806.21 428.87, 805.37 430.46, 805.32 433.63 C 805.26 436.81, 806.19 439.02, 807.21 443.19 C 808.23 447.35, 808.93 450.04, 810.41 454.45 C 811.90 458.86, 812.72 461.19, 814.65 465.26 C 816.57 469.33, 817.89 471.25, 820.05 474.78 C 822.22 478.32, 823.32 480.07, 825.49 482.95 C 827.65 485.83, 828.78 487.34, 830.90 489.20 C 833.02 491.05, 834.00 491.61, 836.10 492.22 C 838.19 492.83, 839.43 492.84, 841.38 492.25 C 843.33 491.65, 844.43 491.03, 845.83 489.24 C 847.22 487.46, 847.72 485.87, 848.35 483.32 C 848.97 480.77, 849.00 479.19, 848.95 476.49 C 848.91 473.78, 848.85 472.05, 848.14 469.79 C 847.42 467.53, 846.70 466.21, 845.37 465.17 C 844.05 464.13, 842.85 463.98, 841.51 464.59 C 840.17 465.19, 839.35 466.35, 838.67 468.19 C 837.99 470.03, 837.80 471.46, 838.12 473.79 C 838.44 476.11, 839.07 477.69, 840.26 479.79 C 841.46 481.90, 842.34 482.92, 844.09 484.30 C 845.85 485.67, 846.90 486.16, 849.05 486.66 C 851.19 487.16, 852.75 487.11, 854.82 486.78 C 856.89 486.46, 857.95 485.92, 859.39 485.04 C 860.82 484.16, 861.64 483.31, 861.99 482.38 C 862.35 481.45, 862.01 480.82, 861.17 480.39 C 860.32 479.97, 859.23 480.13, 857.77 480.23 C 856.30 480.32, 855.43 480.59, 853.84 480.87 C 852.26 481.15, 851.13 481.66, 849.83 481.62 C 848.52 481.58, 848.07 481.55, 847.32 480.68 C 846.56 479.81, 846.47 478.90, 846.04 477.28 C 845.61 475.65, 845.55 474.30, 845.17 472.58 C 844.80 470.85, 844.57 469.93, 844.16 468.66 C 843.75 467.39, 843.51 466.56, 843.12 466.22 C 842.74 465.88, 842.45 466.03, 842.25 466.96 C 842.05 467.88, 842.09 468.93, 842.12 470.85 C 842.15 472.78, 842.36 474.28, 842.38 476.56 C 842.39 478.84, 842.36 480.23, 842.19 482.26 C 842.03 484.29, 841.96 485.45, 841.55 486.72 C 841.14 487.99, 840.95 488.26, 840.13 488.62 C 839.32 488.97, 838.66 489.07, 837.46 488.48 C 836.26 487.88, 835.85 487.29, 834.14 485.64 C 832.42 484.00, 831.05 482.84, 828.87 480.26 C 826.70 477.68, 825.43 476.07, 823.26 472.75 C 821.08 469.44, 819.79 467.59, 817.99 463.69 C 816.18 459.79, 815.44 457.56, 814.23 453.27 C 813.02 448.98, 812.55 446.20, 811.94 442.24 C 811.34 438.28, 811.44 436.16, 811.21 433.45 C 810.97 430.75, 810.86 429.82, 810.75 428.72 C 810.64 427.61, 810.51 427.45, 810.65 427.91 C 810.80 428.36, 811.03 429.12, 811.47 430.99 C 811.91 432.87, 812.50 434.21, 812.83 437.28 C 813.16 440.35, 813.35 442.41, 813.11 446.33 C 812.86 450.26, 812.59 452.67, 811.62 456.90 C 810.65 461.13, 809.88 463.53, 808.24 467.48 C 806.61 471.43, 805.48 473.51, 803.45 476.63 C 801.43 479.75, 800.25 481.16, 798.12 483.08 C 796.00 485.00, 794.75 485.43, 792.82 486.24 C 790.88 487.04, 789.82 487.11, 788.43 487.10 C 787.04 487.08, 786.48 486.94, 785.87 486.16 C 785.25 485.38, 785.09 484.72, 785.34 483.21 C 785.60 481.71, 786.13 480.66, 787.14 478.63 C 788.15 476.60, 788.83 475.08, 790.41 473.08 C 791.98 471.08, 793.31 470.07, 795.01 468.62 C 796.71 467.16, 797.73 466.70, 798.90 465.80 C 800.06 464.91, 800.27 464.63, 800.83 464.15 C 801.38 463.68, 801.38 463.93, 801.67 463.41 C 801.96 462.90, 802.53 462.27, 802.28 461.58" style="stroke: black; fill: black;"/><path d="M 851.84,442.29 C 851.56 441.51, 851.06 441.46, 850.86 441.71 C 850.66 441.95, 850.70 442.89, 850.83 443.52 C 850.97 444.15, 851.30 444.28, 851.54 444.86 C 851.77 445.44, 851.86 446.25, 852.01 446.41 C 852.16 446.57, 852.32 446.48, 852.29 445.65 C 852.26 444.83, 852.13 443.08, 851.84 442.29" style="stroke: black; fill: black;"/><path d="M 874.26,474.68 C 874.46 475.51, 874.99 476.12, 876.04 476.56 C 877.10 477.01, 878.04 477.12, 879.53 476.90 C 881.03 476.67, 881.95 476.27, 883.51 475.42 C 885.06 474.57, 885.93 474.01, 887.32 472.64 C 888.71 471.28, 889.52 470.31, 890.44 468.60 C 891.35 466.89, 891.83 465.83, 891.89 464.08 C 891.94 462.33, 891.58 461.23, 890.71 459.84 C 889.84 458.46, 889.19 457.83, 887.55 457.15 C 885.90 456.48, 884.68 456.16, 882.48 456.45 C 880.29 456.74, 878.78 457.20, 876.57 458.62 C 874.37 460.04, 873.00 461.21, 871.44 463.54 C 869.88 465.86, 869.20 467.46, 868.78 470.25 C 868.36 473.04, 868.31 474.71, 869.33 477.49 C 870.35 480.26, 871.36 481.93, 873.88 484.13 C 876.41 486.34, 878.20 487.38, 881.95 488.52 C 885.70 489.65, 888.02 489.81, 892.62 489.81 C 897.21 489.81, 899.88 489.52, 904.93 488.51 C 909.98 487.50, 913.21 486.43, 917.87 484.74 C 922.53 483.06, 924.98 481.95, 928.22 480.08 C 931.47 478.20, 933.13 476.63, 934.10 475.36 C 935.07 474.09, 934.57 473.42, 933.07 473.74 C 931.56 474.05, 929.87 475.41, 926.59 476.93 C 923.30 478.46, 921.11 479.74, 916.65 481.36 C 912.18 482.98, 909.04 484.11, 904.25 485.03 C 899.46 485.95, 896.86 486.12, 892.69 485.96 C 888.51 485.80, 886.44 485.39, 883.38 484.24 C 880.32 483.10, 879.23 481.94, 877.38 480.23 C 875.54 478.52, 874.83 477.50, 874.16 475.70 C 873.48 473.90, 873.59 472.94, 874.01 471.22 C 874.44 469.50, 875.05 468.52, 876.26 467.10 C 877.47 465.67, 878.55 465.05, 880.06 464.10 C 881.57 463.15, 882.53 462.85, 883.81 462.36 C 885.09 461.87, 885.77 461.76, 886.47 461.64 C 887.17 461.53, 887.22 461.47, 887.32 461.78 C 887.41 462.08, 887.34 462.46, 886.95 463.17 C 886.55 463.89, 886.13 464.37, 885.33 465.35 C 884.53 466.34, 883.92 467.18, 882.94 468.09 C 881.96 468.99, 881.42 469.33, 880.44 469.90 C 879.45 470.46, 878.79 470.55, 878.00 470.91 C 877.20 471.27, 877.03 471.39, 876.44 471.70 C 875.85 472.01, 875.49 471.86, 875.05 472.46 C 874.62 473.05, 874.06 473.86, 874.26 474.68" style="stroke: black; fill: black;"/><path d="M 983.64,413.59 C 983.05 414.71, 982.86 416.21, 983.01 418.87 C 983.15 421.53, 983.61 423.17, 984.35 426.91 C 985.09 430.64, 985.95 433.22, 986.71 437.56 C 987.47 441.89, 987.65 444.28, 988.16 448.57 C 988.66 452.85, 988.91 455.31, 989.24 458.99 C 989.58 462.68, 989.36 464.50, 989.82 466.99 C 990.27 469.48, 990.60 470.35, 991.51 471.44 C 992.43 472.53, 993.08 472.60, 994.40 472.44 C 995.72 472.27, 996.61 471.76, 998.09 470.63 C 999.58 469.50, 1000.29 468.79, 1001.82 466.79 C 1003.35 464.78, 1003.77 463.30, 1005.75 460.61 C 1007.73 457.91, 1008.92 456.31, 1011.73 453.29 C 1014.54 450.27, 1016.49 448.64, 1019.81 445.51 C 1023.13 442.37, 1025.04 440.65, 1028.33 437.64 C 1031.61 434.63, 1033.32 433.12, 1036.25 430.46 C 1039.19 427.80, 1040.79 426.69, 1042.99 424.33 C 1045.19 421.98, 1046.15 420.72, 1047.26 418.68 C 1048.36 416.64, 1048.40 415.59, 1048.52 414.15 C 1048.63 412.72, 1048.25 412.06, 1047.83 411.51 C 1047.41 410.97, 1046.88 411.09, 1046.41 411.44 C 1045.95 411.79, 1046.10 412.29, 1045.50 413.25 C 1044.90 414.22, 1044.59 414.65, 1043.41 416.25 C 1042.22 417.85, 1041.54 418.98, 1039.57 421.25 C 1037.60 423.52, 1036.30 424.88, 1033.54 427.61 C 1030.79 430.34, 1029.08 431.89, 1025.81 434.91 C 1022.55 437.92, 1020.65 439.62, 1017.22 442.69 C 1013.80 445.76, 1011.79 447.36, 1008.69 450.27 C 1005.60 453.18, 1004.15 454.73, 1001.75 457.23 C 999.35 459.73, 998.28 460.79, 996.69 462.76 C 995.10 464.72, 994.55 465.53, 993.81 467.06 C 993.08 468.58, 992.99 469.67, 993.01 470.40 C 993.02 471.13, 993.54 471.49, 993.88 470.70 C 994.21 469.92, 994.74 468.92, 994.67 466.48 C 994.60 464.04, 994.03 462.18, 993.51 458.50 C 993.00 454.82, 992.62 452.41, 992.10 448.09 C 991.57 443.77, 991.49 441.31, 990.88 436.90 C 990.28 432.50, 989.65 429.82, 989.06 426.07 C 988.47 422.32, 988.56 420.70, 987.94 418.14 C 987.31 415.58, 986.79 414.19, 985.93 413.28 C 985.07 412.37, 984.22 412.47, 983.64 413.59" style="stroke: black; fill: black;"/><path d="M 990.15,460.96 C 990.41 461.61, 990.72 461.39, 991.12 461.68 C 991.52 461.97, 991.39 462.05, 992.15 462.41 C 992.91 462.78, 993.45 463.07, 994.94 463.50 C 996.42 463.94, 997.44 464.24, 999.57 464.58 C 1001.71 464.93, 1003.13 464.94, 1005.63 465.24 C 1008.13 465.53, 1009.67 465.80, 1012.08 466.05 C 1014.50 466.31, 1015.96 466.55, 1017.69 466.51 C 1019.41 466.46, 1020.12 466.14, 1020.70 465.84 C 1021.29 465.53, 1021.08 465.15, 1020.61 464.99 C 1020.15 464.83, 1019.42 464.56, 1018.37 465.02 C 1017.33 465.48, 1016.19 465.87, 1015.39 467.28 C 1014.59 468.70, 1014.17 470.24, 1014.38 472.10 C 1014.59 473.96, 1015.18 475.19, 1016.44 476.61 C 1017.70 478.02, 1018.65 478.60, 1020.67 479.18 C 1022.68 479.76, 1024.01 479.82, 1026.52 479.48 C 1029.04 479.15, 1030.64 478.66, 1033.24 477.52 C 1035.85 476.39, 1037.26 475.43, 1039.55 473.80 C 1041.84 472.17, 1043.22 471.01, 1044.70 469.36 C 1046.19 467.72, 1046.72 466.69, 1046.98 465.59 C 1047.24 464.48, 1046.71 463.85, 1046.00 463.83 C 1045.29 463.80, 1044.21 464.26, 1043.44 465.46 C 1042.68 466.66, 1042.20 468.10, 1042.19 469.84 C 1042.17 471.58, 1042.67 472.66, 1043.37 474.17 C 1044.06 475.69, 1044.74 476.59, 1045.69 477.41 C 1046.63 478.22, 1047.37 478.30, 1048.09 478.26 C 1048.81 478.22, 1049.01 477.73, 1049.28 477.19 C 1049.55 476.65, 1049.34 476.45, 1049.44 475.55 C 1049.53 474.65, 1049.68 473.91, 1049.76 472.70 C 1049.83 471.49, 1049.95 470.85, 1049.80 469.50 C 1049.65 468.16, 1049.53 467.17, 1048.99 465.98 C 1048.45 464.78, 1047.98 464.11, 1047.11 463.52 C 1046.24 462.93, 1045.92 462.76, 1044.66 463.02 C 1043.41 463.28, 1042.59 463.71, 1040.84 464.81 C 1039.09 465.92, 1037.95 467.17, 1035.91 468.53 C 1033.87 469.90, 1032.74 470.68, 1030.63 471.63 C 1028.53 472.58, 1027.19 472.82, 1025.38 473.29 C 1023.56 473.76, 1022.66 473.94, 1021.56 473.98 C 1020.45 474.02, 1020.18 473.82, 1019.86 473.49 C 1019.53 473.17, 1019.60 472.85, 1019.92 472.36 C 1020.24 471.87, 1020.93 471.80, 1021.47 471.05 C 1022.01 470.31, 1022.35 469.72, 1022.61 468.65 C 1022.88 467.59, 1022.93 466.81, 1022.78 465.72 C 1022.62 464.64, 1022.67 464.12, 1021.86 463.20 C 1021.05 462.29, 1020.48 461.87, 1018.73 461.15 C 1016.98 460.43, 1015.56 460.13, 1013.11 459.61 C 1010.66 459.09, 1008.98 458.89, 1006.47 458.55 C 1003.96 458.21, 1002.61 458.19, 1000.56 457.91 C 998.51 457.64, 997.70 457.36, 996.21 457.19 C 994.72 457.03, 994.12 457.04, 993.12 457.08 C 992.12 457.13, 991.86 457.14, 991.20 457.41 C 990.53 457.68, 990.02 457.73, 989.81 458.44 C 989.60 459.15, 989.89 460.32, 990.15 460.96" style="stroke: black; fill: black;"/><path d="M 1056.43,434.42 C 1057.10 433.99, 1057.25 433.93, 1057.12 433.94 C 1056.99 433.94, 1056.43 434.33, 1055.77 434.45 C 1055.11 434.56, 1054.47 434.26, 1053.81 434.51 C 1053.15 434.76, 1052.50 435.37, 1052.48 435.69 C 1052.47 436.02, 1052.97 436.37, 1053.76 436.12 C 1054.55 435.87, 1055.76 434.86, 1056.43 434.42" style="stroke: black; fill: black;"/><path d="M 1069.83,454.34 C 1069.45 454.67, 1069.48 454.38, 1069.12 454.62 C 1068.75 454.86, 1068.31 454.80, 1068.00 455.54 C 1067.69 456.28, 1067.73 456.87, 1067.58 458.34 C 1067.43 459.80, 1067.35 460.85, 1067.26 462.87 C 1067.17 464.90, 1067.14 466.26, 1067.12 468.46 C 1067.11 470.67, 1066.86 472.03, 1067.19 473.90 C 1067.53 475.76, 1067.83 476.83, 1068.78 477.80 C 1069.72 478.77, 1070.69 479.07, 1071.91 478.75 C 1073.13 478.43, 1073.76 477.77, 1074.87 476.21 C 1075.97 474.65, 1076.47 473.34, 1077.43 470.96 C 1078.40 468.58, 1078.77 466.74, 1079.69 464.30 C 1080.62 461.86, 1081.20 460.58, 1082.04 458.78 C 1082.89 456.97, 1083.20 456.11, 1083.91 455.26 C 1084.62 454.41, 1084.71 454.40, 1085.57 454.52 C 1086.43 454.65, 1087.01 455.28, 1088.20 455.90 C 1089.39 456.52, 1090.07 457.22, 1091.51 457.63 C 1092.95 458.05, 1094.35 458.35, 1095.39 457.97 C 1096.42 457.58, 1096.92 456.81, 1096.69 455.70 C 1096.45 454.59, 1095.57 453.45, 1094.24 452.42 C 1092.91 451.38, 1091.83 450.93, 1090.04 450.54 C 1088.24 450.14, 1087.01 450.10, 1085.26 450.42 C 1083.51 450.74, 1082.85 451.10, 1081.29 452.16 C 1079.73 453.22, 1079.04 453.90, 1077.46 455.72 C 1075.88 457.54, 1074.87 458.74, 1073.40 461.26 C 1071.93 463.79, 1070.95 465.70, 1070.11 468.34 C 1069.28 470.97, 1069.20 472.62, 1069.24 474.45 C 1069.28 476.28, 1069.80 476.95, 1070.33 477.49 C 1070.87 478.02, 1071.32 477.83, 1071.91 477.13 C 1072.50 476.44, 1072.88 475.69, 1073.28 474.02 C 1073.69 472.35, 1073.72 470.95, 1073.92 468.80 C 1074.12 466.65, 1074.16 465.31, 1074.29 463.26 C 1074.43 461.22, 1074.64 460.19, 1074.60 458.57 C 1074.55 456.96, 1074.48 456.21, 1074.07 455.17 C 1073.65 454.13, 1073.12 453.83, 1072.51 453.39 C 1071.90 452.95, 1071.55 452.79, 1071.01 452.98 C 1070.47 453.17, 1070.21 454.01, 1069.83 454.34" style="stroke: black; fill: black;"/><path d="M 1123.91,458.07 C 1123.78 457.19, 1123.20 456.46, 1122.06 455.85 C 1120.92 455.25, 1120.06 454.98, 1118.22 455.05 C 1116.37 455.11, 1115.03 455.17, 1112.82 456.19 C 1110.61 457.21, 1109.20 458.17, 1107.15 460.15 C 1105.10 462.13, 1103.79 463.54, 1102.57 466.09 C 1101.35 468.65, 1100.92 470.38, 1101.05 472.90 C 1101.18 475.43, 1101.52 476.79, 1103.22 478.70 C 1104.92 480.62, 1106.42 481.69, 1109.53 482.46 C 1112.65 483.23, 1114.82 483.02, 1118.79 482.55 C 1122.76 482.08, 1125.10 481.62, 1129.40 480.11 C 1133.70 478.60, 1136.22 477.65, 1140.30 475.00 C 1144.39 472.36, 1146.51 470.62, 1149.83 466.90 C 1153.14 463.17, 1154.62 460.70, 1156.86 456.38 C 1159.10 452.06, 1160.04 449.52, 1161.02 445.28 C 1162.01 441.05, 1162.10 438.80, 1161.78 435.21 C 1161.47 431.62, 1160.83 429.74, 1159.46 427.33 C 1158.08 424.93, 1156.95 423.94, 1154.91 423.18 C 1152.87 422.41, 1151.29 422.51, 1149.26 423.52 C 1147.23 424.53, 1146.12 425.58, 1144.76 428.24 C 1143.41 430.89, 1142.85 432.96, 1142.51 436.80 C 1142.17 440.64, 1142.48 443.22, 1143.06 447.46 C 1143.64 451.69, 1144.30 453.99, 1145.42 457.97 C 1146.54 461.95, 1147.11 463.96, 1148.67 467.35 C 1150.22 470.75, 1151.31 472.56, 1153.19 474.94 C 1155.08 477.31, 1156.33 478.02, 1158.10 479.23 C 1159.87 480.44, 1160.55 480.54, 1162.04 480.97 C 1163.54 481.40, 1164.14 481.54, 1165.55 481.38 C 1166.95 481.23, 1167.83 480.91, 1169.07 480.19 C 1170.31 479.46, 1171.09 478.72, 1171.75 477.74 C 1172.42 476.76, 1172.38 475.95, 1172.39 475.29 C 1172.40 474.63, 1171.97 474.39, 1171.78 474.44 C 1171.60 474.50, 1171.35 474.79, 1171.47 475.57 C 1171.59 476.36, 1171.64 477.19, 1172.38 478.38 C 1173.12 479.57, 1173.87 480.43, 1175.17 481.51 C 1176.47 482.58, 1177.32 483.00, 1178.87 483.75 C 1180.43 484.50, 1181.15 484.85, 1182.95 485.25 C 1184.76 485.64, 1185.80 485.87, 1187.90 485.73 C 1189.99 485.58, 1191.20 485.27, 1193.42 484.53 C 1195.65 483.80, 1196.79 483.20, 1199.02 482.04 C 1201.26 480.87, 1202.56 480.25, 1204.59 478.70 C 1206.62 477.15, 1207.81 476.07, 1209.18 474.30 C 1210.55 472.53, 1211.06 471.54, 1211.44 469.83 C 1211.81 468.12, 1211.73 467.09, 1211.07 465.75 C 1210.42 464.40, 1209.56 463.72, 1208.17 463.09 C 1206.78 462.47, 1205.70 462.25, 1204.10 462.62 C 1202.50 463.00, 1201.37 463.59, 1200.17 464.97 C 1198.97 466.35, 1198.34 467.48, 1198.10 469.51 C 1197.86 471.54, 1197.77 472.98, 1198.96 475.11 C 1200.16 477.24, 1201.54 478.32, 1204.07 480.16 C 1206.59 481.99, 1208.46 482.61, 1211.58 484.31 C 1214.71 486.00, 1216.47 486.99, 1219.67 488.61 C 1222.88 490.23, 1224.84 491.19, 1227.61 492.39 C 1230.37 493.60, 1231.58 494.02, 1233.49 494.62 C 1235.39 495.22, 1236.24 495.52, 1237.13 495.40 C 1238.02 495.28, 1238.30 494.88, 1237.95 494.02 C 1237.60 493.16, 1236.99 492.41, 1235.38 491.12 C 1233.77 489.82, 1232.60 488.94, 1229.91 487.55 C 1227.22 486.15, 1225.05 485.72, 1221.93 484.14 C 1218.81 482.57, 1217.16 481.50, 1214.31 479.67 C 1211.46 477.85, 1209.91 476.53, 1207.69 475.02 C 1205.47 473.51, 1204.15 473.05, 1203.19 472.13 C 1202.23 471.21, 1202.63 471.04, 1202.89 470.41 C 1203.14 469.77, 1203.91 469.50, 1204.48 468.95 C 1205.05 468.41, 1205.27 467.99, 1205.75 467.69 C 1206.24 467.39, 1206.42 467.52, 1206.89 467.44 C 1207.36 467.37, 1207.97 467.16, 1208.10 467.31 C 1208.24 467.46, 1208.17 467.57, 1207.56 468.20 C 1206.95 468.83, 1206.37 469.34, 1205.05 470.45 C 1203.73 471.57, 1202.75 472.52, 1200.97 473.77 C 1199.20 475.01, 1198.11 475.64, 1196.19 476.66 C 1194.28 477.68, 1193.19 478.17, 1191.41 478.84 C 1189.63 479.52, 1188.76 479.81, 1187.28 480.06 C 1185.79 480.31, 1185.13 480.29, 1183.98 480.09 C 1182.82 479.90, 1182.36 479.71, 1181.50 479.09 C 1180.64 478.48, 1180.41 477.98, 1179.68 477.02 C 1178.95 476.05, 1178.75 475.27, 1177.86 474.28 C 1176.98 473.30, 1176.44 472.70, 1175.26 472.08 C 1174.08 471.46, 1173.29 471.20, 1171.97 471.19 C 1170.65 471.18, 1169.74 471.45, 1168.66 472.04 C 1167.58 472.62, 1167.20 473.26, 1166.57 474.11 C 1165.95 474.97, 1165.92 475.59, 1165.56 476.31 C 1165.19 477.03, 1165.21 477.49, 1164.75 477.74 C 1164.30 477.98, 1164.07 477.93, 1163.28 477.54 C 1162.49 477.15, 1162.04 476.94, 1160.82 475.79 C 1159.60 474.63, 1158.84 473.83, 1157.19 471.76 C 1155.54 469.69, 1154.14 468.43, 1152.59 465.44 C 1151.04 462.46, 1150.45 460.55, 1149.43 456.85 C 1148.42 453.15, 1147.86 450.83, 1147.49 446.94 C 1147.13 443.05, 1147.13 440.68, 1147.61 437.39 C 1148.10 434.11, 1149.16 432.65, 1149.92 430.51 C 1150.68 428.38, 1150.72 427.56, 1151.43 426.74 C 1152.13 425.91, 1152.65 425.84, 1153.46 426.37 C 1154.27 426.90, 1154.66 427.52, 1155.47 429.38 C 1156.29 431.24, 1157.15 432.63, 1157.54 435.66 C 1157.93 438.69, 1158.16 440.68, 1157.42 444.51 C 1156.68 448.35, 1155.84 450.80, 1153.82 454.83 C 1151.80 458.86, 1150.40 461.22, 1147.32 464.66 C 1144.24 468.09, 1142.25 469.68, 1138.42 472.01 C 1134.59 474.34, 1132.18 475.14, 1128.18 476.31 C 1124.17 477.47, 1121.90 477.68, 1118.40 477.83 C 1114.90 477.97, 1113.13 477.47, 1110.70 477.05 C 1108.26 476.62, 1107.21 476.49, 1106.20 475.71 C 1105.20 474.93, 1105.32 474.45, 1105.66 473.15 C 1106.00 471.85, 1106.66 470.83, 1107.88 469.21 C 1109.11 467.59, 1110.22 466.51, 1111.80 465.05 C 1113.38 463.59, 1114.36 462.78, 1115.79 461.90 C 1117.23 461.03, 1117.95 460.97, 1118.96 460.66 C 1119.96 460.35, 1120.07 460.44, 1120.82 460.36 C 1121.57 460.27, 1122.08 460.69, 1122.70 460.23 C 1123.32 459.77, 1124.04 458.94, 1123.91 458.07" style="stroke: black; fill: black;"/></svg>